<?xml version="1.0" encoding="UTF-8"?>
<!-- The Best Svg Icon site in the world: iconSvg.co, Visit us! https://iconsvg.co -->
<svg fill="#000000" width="800px" height="800px" version="1.1" viewBox="144 144 512 512" xmlns="http://www.w3.org/2000/svg">
 <g>
  <path d="m470.53 223.67h110.84c2.6367 0 5.0391 2.3984 5.0391 5.0391v342.59c0 2.6367-2.3984 5.0391-5.0391 5.0391h-110.84c-2.6367 0-5.0391-2.3984-5.0391-5.0391v-60.242c-0.050782-2.6602 2.375-5.1094 5.0391-5.1094 2.6602 0 5.0742 2.4492 5.0391 5.1094v55.203h100.76v-332.52h-100.76v55.203c0.050782 2.6602-2.375 5.1094-5.0391 5.1094s-5.0742-2.4492-5.0391-5.1094v-60.242c0.10547-3.3359 2.6875-5 5.0391-5.0391z"/>
  <path d="m514.62 396.52-80.609-85.648c-1.9531-2.0352-5.2852-2.0508-7.1641-0.23828-1.9102 1.8438-2.0508 5.2266-0.23828 7.1641l72.582 77.145h-280.56c-2.7812 0-5.0391 2.2539-5.0391 5.0391 0 2.7812 2.2539 5.0391 5.0391 5.0391h280.56l-72.582 77.145c-1.8125 1.9375-1.7031 5.3516 0.23828 7.1641 1.9375 1.8125 5.0547 1.8594 7.1641-0.23828l80.609-85.648c1.9141-2.3594 1.4141-5.2461 0-6.9297z"/>
 </g>
</svg>